<svg xmlns="http://www.w3.org/2000/svg" xmlns:xlink="http://www.w3.org/1999/xlink" width="500" zoomAndPan="magnify" viewBox="0 0 375 374.999991" height="500" preserveAspectRatio="xMidYMid meet" version="1.0"><defs><clipPath id="d4bd2d47c6"><path d="M 137.859375 249.4375 L 365.898438 249.4375 L 365.898438 325.351562 L 137.859375 325.351562 Z M 137.859375 249.4375 " clip-rule="nonzero"/></clipPath><clipPath id="222baff904"><path d="M 151 13 L 277 13 L 277 249 L 151 249 Z M 151 13 " clip-rule="nonzero"/></clipPath><clipPath id="72da07f456"><path d="M 189.03125 13.214844 L 303.488281 210.449219 L 236.683594 249.21875 L 122.226562 51.984375 Z M 189.03125 13.214844 " clip-rule="nonzero"/></clipPath><clipPath id="981f8f47bd"><path d="M 123.371094 51.320312 L 237.828125 248.554688 L 304.632812 209.785156 L 190.175781 12.550781 Z M 123.371094 51.320312 " clip-rule="nonzero"/></clipPath><clipPath id="e80a49a7ad"><path d="M 8 152 L 188 152 L 188 335 L 8 335 Z M 8 152 " clip-rule="nonzero"/></clipPath><clipPath id="c72ffeb748"><path d="M 8.132812 324.089844 L 121.230469 126.074219 L 188.300781 164.382812 L 75.203125 362.398438 Z M 8.132812 324.089844 " clip-rule="nonzero"/></clipPath><clipPath id="05cf607c3d"><path d="M 74.054688 361.742188 L 187.152344 163.726562 L 120.082031 125.417969 L 6.984375 323.433594 Z M 74.054688 361.742188 " clip-rule="nonzero"/></clipPath></defs><g clip-path="url(#d4bd2d47c6)"><path fill="#0093dd" d="M 366.855469 325.351562 L 213.792969 325.351562 C 171.867188 325.351562 137.878906 291.363281 137.878906 249.4375 L 290.9375 249.4375 C 332.867188 249.4375 366.855469 283.425781 366.855469 325.351562 Z M 366.855469 325.351562 " fill-opacity="1" fill-rule="nonzero"/></g><g clip-path="url(#222baff904)"><g clip-path="url(#72da07f456)"><g clip-path="url(#981f8f47bd)"><path fill="#0093dd" d="M 238.308594 249.382812 L 161.691406 117.351562 L 161.484375 116.996094 C 140.441406 80.734375 152.777344 34.277344 189.042969 13.234375 L 265.660156 145.265625 L 265.867188 145.617188 C 286.910156 181.882812 274.570312 228.339844 238.308594 249.382812 Z M 238.308594 249.382812 " fill-opacity="1" fill-rule="nonzero"/></g></g></g><g clip-path="url(#e80a49a7ad)"><g clip-path="url(#c72ffeb748)"><g clip-path="url(#05cf607c3d)"><path fill="#0093dd" d="M 187.628906 162.894531 L 111.917969 295.449219 L 111.714844 295.804688 C 90.921875 332.210938 44.550781 344.867188 8.140625 324.074219 L 83.851562 191.519531 L 84.054688 191.164062 C 104.851562 154.757812 151.222656 142.101562 187.628906 162.894531 Z M 187.628906 162.894531 " fill-opacity="1" fill-rule="nonzero"/></g></g></g></svg>